<svg width="43" height="42" viewBox="0 0 43 42" fill="none" xmlns="http://www.w3.org/2000/svg">
<g clip-path="url(#clip0_1538_3734)">
<rect x="0.166626" width="42" height="42" rx="21" fill="#2C3036"/>
<path d="M42.1666 21.225V20.775C32.8666 20.475 28.6216 20.25 25.2166 16.95C21.9166 13.545 21.6766 9.3 21.3916 0H20.9416C20.6416 9.3 20.4166 13.545 17.1166 16.95C13.7116 20.25 9.46663 20.49 0.166626 20.775V21.225C9.46663 21.525 13.7116 21.75 17.1166 25.05C20.4166 28.455 20.6566 32.7 20.9416 42H21.3916C21.6916 32.7 21.9166 28.455 25.2166 25.05C28.6216 21.75 32.8666 21.51 42.1666 21.225Z" fill="white"/>
</g>
<defs>
<clipPath id="clip0_1538_3734">
<rect x="0.166626" width="42" height="42" rx="21" fill="white"/>
</clipPath>
</defs>
</svg>
