<svg width="42" height="42" viewBox="0 0 42 42" fill="none" xmlns="http://www.w3.org/2000/svg">
<rect width="42" height="42" rx="21" fill="#25D366"/>
<path d="M27.8729 14.4826C26.1543 12.76 23.8656 11.8125 21.4334 11.8125C16.4131 11.8125 12.3279 15.8977 12.3279 20.918C12.3279 22.5217 12.7463 24.0885 13.542 25.4707L12.25 30.1875L17.0775 28.9201C18.4064 29.6461 19.9035 30.0275 21.4293 30.0275H21.4334C26.4496 30.0275 30.625 25.9424 30.625 20.9221C30.625 18.4898 29.5914 16.2053 27.8729 14.4826ZM21.4334 28.4936C20.0717 28.4936 18.7387 28.1285 17.5779 27.4395L17.3031 27.2754L14.4402 28.026L15.2031 25.2328L15.0227 24.9457C14.2639 23.7398 13.866 22.3494 13.866 20.918C13.866 16.7467 17.2621 13.3506 21.4375 13.3506C23.4596 13.3506 25.3586 14.1381 26.7859 15.5695C28.2133 17.001 29.091 18.9 29.0869 20.9221C29.0869 25.0975 25.6047 28.4936 21.4334 28.4936ZM25.5842 22.8252C25.3586 22.7104 24.2389 22.1607 24.0297 22.0869C23.8205 22.009 23.6688 21.9721 23.517 22.2018C23.3652 22.4314 22.9305 22.94 22.7951 23.0959C22.6639 23.2477 22.5285 23.2682 22.3029 23.1533C20.9658 22.4848 20.0881 21.9598 19.2063 20.4463C18.9725 20.0443 19.44 20.073 19.8748 19.2035C19.9486 19.0518 19.9117 18.9205 19.8543 18.8057C19.7969 18.6908 19.3416 17.5711 19.1529 17.1158C18.9684 16.6729 18.7797 16.7344 18.6402 16.7262C18.509 16.718 18.3572 16.718 18.2055 16.718C18.0537 16.718 17.8076 16.7754 17.5984 17.001C17.3893 17.2307 16.8027 17.7803 16.8027 18.9C16.8027 20.0197 17.6189 21.1025 17.7297 21.2543C17.8445 21.4061 19.3334 23.7029 21.618 24.6914C23.0617 25.3148 23.6277 25.3682 24.3496 25.2615C24.7885 25.1959 25.6949 24.7119 25.8836 24.1787C26.0723 23.6455 26.0723 23.1902 26.0148 23.0959C25.9615 22.9934 25.8098 22.9359 25.5842 22.8252Z" fill="white"/>
</svg>
