<svg width="315" height="56" viewBox="0 0 315 56" fill="none" xmlns="http://www.w3.org/2000/svg">
<path d="M0.391 55V0.714997H8.399V55H0.391ZM18.8349 55V0.714997H24.9949L58.3359 44.451H56.4109V0.714997H63.8799V55H57.7969L24.5329 11.264H26.3039V55H18.8349ZM92.6009 55.693C88.2376 55.693 84.2849 55.154 80.7429 54.076C77.2009 52.9467 74.1209 51.3553 71.5029 49.302L74.1979 42.988C75.9432 44.3227 77.7399 45.4263 79.5879 46.299C81.4872 47.1717 83.4892 47.839 85.5939 48.301C87.7499 48.7117 90.0856 48.917 92.6009 48.917C96.9129 48.917 100.07 48.147 102.072 46.607C104.125 45.067 105.152 43.0393 105.152 40.524C105.152 38.368 104.433 36.6997 102.996 35.519C101.61 34.3383 99.1459 33.3887 95.6039 32.67L87.2109 30.976C82.2316 29.9493 78.5099 28.281 76.0459 25.971C73.6332 23.6097 72.4269 20.4013 72.4269 16.346C72.4269 13.0607 73.2996 10.186 75.0449 7.722C76.7902 5.258 79.2029 3.35866 82.2829 2.024C85.4142 0.68933 89.0589 0.0219964 93.2169 0.0219964C97.0669 0.0219964 100.609 0.586663 103.843 1.716C107.077 2.794 109.798 4.411 112.005 6.567L109.387 12.65C107.077 10.648 104.613 9.185 101.995 8.261C99.3769 7.28566 96.3996 6.798 93.0629 6.798C89.1102 6.798 86.0046 7.61933 83.7459 9.262C81.5386 10.9047 80.4349 13.1377 80.4349 15.961C80.4349 18.2197 81.1279 19.9907 82.5139 21.274C83.9512 22.5573 86.3126 23.5327 89.5979 24.2L97.9909 25.817C103.176 26.895 107 28.5633 109.464 30.822C111.928 33.0293 113.16 36.0837 113.16 39.985C113.16 43.1163 112.313 45.8627 110.619 48.224C108.976 50.5853 106.615 52.4333 103.535 53.768C100.455 55.0513 96.8102 55.693 92.6009 55.693ZM120.691 55V0.714997H143.714C149.515 0.714997 153.955 2.12666 157.035 4.95C160.167 7.722 161.732 11.572 161.732 16.5C161.732 21.428 160.167 25.3037 157.035 28.127C153.955 30.9503 149.515 32.362 143.714 32.362H128.699V55H120.691ZM128.699 25.971H142.867C146.512 25.971 149.258 25.1497 151.106 23.507C152.954 21.8643 153.878 19.5287 153.878 16.5C153.878 13.5227 152.954 11.2127 151.106 9.57C149.258 7.92733 146.512 7.106 142.867 7.106H128.699V25.971ZM169.063 55V0.714997H177.071V55H169.063ZM187.507 55V0.714997H210.453C216.254 0.714997 220.745 2.101 223.928 4.873C227.111 7.59366 228.702 11.418 228.702 16.346C228.702 19.58 227.983 22.352 226.546 24.662C225.109 26.972 223.081 28.743 220.463 29.975C217.845 31.1557 214.765 31.746 211.223 31.746L212.455 30.514H214.534C216.639 30.514 218.512 31.053 220.155 32.131C221.849 33.209 223.235 34.9287 224.313 37.29L232.09 55H223.312L215.612 37.213C214.842 35.1083 213.636 33.748 211.993 33.132C210.402 32.516 208.425 32.208 206.064 32.208H195.515V55H187.507ZM195.515 26.125H209.144C212.994 26.125 215.894 25.3037 217.845 23.661C219.847 22.0183 220.848 19.657 220.848 16.577C220.848 13.4457 219.847 11.0843 217.845 9.493C215.894 7.90166 212.994 7.106 209.144 7.106H195.515V26.125ZM232.363 55L256.541 0.714997H263.394L287.957 55H279.718L273.019 39.6L276.407 41.756H243.528L247.147 39.6L240.448 55H232.363ZM259.852 9.493L248.148 37.136L246.3 35.365H273.635L272.095 37.136L260.16 9.493H259.852Z" fill="white"/>
<path d="M294.979 19.272L291.591 16.654C293.079 15.114 294.08 13.6767 294.594 12.342C295.158 10.956 295.441 9.57 295.441 8.184L297.52 9.801H291.052V0.714997H300.215V6.952C300.215 9.262 299.83 11.418 299.06 13.42C298.29 15.3707 296.929 17.3213 294.979 19.272ZM308.993 19.272L305.605 16.654C307.093 15.114 308.094 13.6767 308.608 12.342C309.172 10.956 309.455 9.57 309.455 8.184L311.534 9.801H305.066V0.714997H314.229V6.952C314.229 9.262 313.844 11.418 313.074 13.42C312.304 15.3707 310.943 17.3213 308.993 19.272Z" fill="#00BA61"/>
</svg>
