<svg width="87" height="16" viewBox="0 0 87 16" fill="none" xmlns="http://www.w3.org/2000/svg">
<path d="M0.44 15V0.899999H3.56V15H0.44ZM5.81656 15V0.899999H8.13656L15.7966 10.64H15.2566V0.899999H18.1566V15H15.8366L8.19656 5.26H8.71656V15H5.81656ZM25.5119 15.22C24.3785 15.22 23.3185 15.08 22.3319 14.8C21.3452 14.52 20.5052 14.1333 19.8119 13.64L20.7319 11.2C21.1852 11.5067 21.6652 11.7667 22.1719 11.98C22.6785 12.1933 23.2119 12.36 23.7719 12.48C24.3319 12.5867 24.9185 12.64 25.5319 12.64C26.4919 12.64 27.1719 12.4933 27.5719 12.2C27.9852 11.9067 28.1919 11.5333 28.1919 11.08C28.1919 10.6667 28.0519 10.3533 27.7719 10.14C27.5052 9.91333 27.0119 9.72 26.2919 9.56L23.9319 9.08C22.6385 8.81333 21.6719 8.36 21.0319 7.72C20.3919 7.08 20.0719 6.22667 20.0719 5.16C20.0719 4.25333 20.3119 3.46667 20.7919 2.8C21.2719 2.13333 21.9452 1.61333 22.8119 1.24C23.6919 0.866666 24.7185 0.68 25.8919 0.68C26.8919 0.68 27.8252 0.819999 28.6919 1.1C29.5585 1.38 30.2719 1.78 30.8319 2.3L29.9119 4.58C29.3652 4.14 28.7519 3.81333 28.0719 3.6C27.4052 3.37333 26.6585 3.26 25.8319 3.26C24.9652 3.26 24.2985 3.41333 23.8319 3.72C23.3785 4.02667 23.1519 4.44667 23.1519 4.98C23.1519 5.38 23.2919 5.70667 23.5719 5.96C23.8519 6.2 24.3452 6.39333 25.0519 6.54L27.3719 7C28.6919 7.26667 29.6719 7.71333 30.3119 8.34C30.9519 8.96667 31.2719 9.8 31.2719 10.84C31.2719 11.72 31.0319 12.4867 30.5519 13.14C30.0852 13.7933 29.4185 14.3067 28.5519 14.68C27.6985 15.04 26.6852 15.22 25.5119 15.22ZM32.9759 15V0.899999H39.5559C41.1426 0.899999 42.3426 1.28667 43.1559 2.06C43.9826 2.82 44.3959 3.86667 44.3959 5.2C44.3959 6.52 43.9826 7.57333 43.1559 8.36C42.3426 9.13333 41.1426 9.52 39.5559 9.52H36.0959V15H32.9759ZM36.0959 7.1H39.1559C39.9026 7.1 40.4559 6.93333 40.8159 6.6C41.1893 6.26667 41.3759 5.8 41.3759 5.2C41.3759 4.6 41.1893 4.14 40.8159 3.82C40.4559 3.48667 39.9026 3.32 39.1559 3.32H36.0959V7.1ZM45.872 15V0.899999H48.992V15H45.872ZM51.2486 15V0.899999H57.6486C59.2353 0.899999 60.4619 1.28 61.3286 2.04C62.1953 2.78667 62.6286 3.83333 62.6286 5.18C62.6286 6.06 62.4286 6.82 62.0286 7.46C61.6419 8.08667 61.0819 8.57333 60.3486 8.92C59.6286 9.25333 58.7619 9.42 57.7486 9.42L57.9886 8.98H58.8086C59.3819 8.98 59.8886 9.13333 60.3286 9.44C60.7819 9.74667 61.1553 10.1933 61.4486 10.78L63.5486 15H60.1086L57.9286 10.46C57.7686 10.0733 57.5153 9.82 57.1686 9.7C56.8353 9.56667 56.4486 9.5 56.0086 9.5H54.3686V15H51.2486ZM54.3686 7.26H57.1086C57.9219 7.26 58.5419 7.09333 58.9686 6.76C59.3953 6.42667 59.6086 5.93333 59.6086 5.28C59.6086 4.62667 59.3953 4.14 58.9686 3.82C58.5419 3.48667 57.9219 3.32 57.1086 3.32H54.3686V7.26ZM62.8753 15L69.3553 0.899999H71.9353L78.4953 15H75.3353L73.6353 11.08L74.8553 11.94H66.4753L67.7153 11.08L66.0153 15H62.8753ZM70.6353 4.18L68.0553 10.3L67.5153 9.54H73.8153L73.3553 10.3L70.7153 4.18H70.6353Z" fill="#2D2D2D"/>
<path d="M80.1111 6.98L78.9311 6.04C79.3978 5.56 79.7244 5.11333 79.9111 4.7C80.1111 4.28667 80.2111 3.84667 80.2111 3.38L80.9111 4.1H78.6511V0.899999H81.9111V2.96C81.9111 3.72 81.7778 4.41333 81.5111 5.04C81.2444 5.66667 80.7778 6.31333 80.1111 6.98ZM84.4511 6.98L83.2711 6.04C83.7378 5.56 84.0644 5.11333 84.2511 4.7C84.4511 4.28667 84.5511 3.84667 84.5511 3.38L85.2511 4.1H82.9911V0.899999H86.2511V2.96C86.2511 3.72 86.1178 4.41333 85.8511 5.04C85.5844 5.66667 85.1178 6.31333 84.4511 6.98Z" fill="#00BA61"/>
</svg>
