<svg width="142" height="34" viewBox="0 0 142 34" fill="none" xmlns="http://www.w3.org/2000/svg">
<path d="M6.6001 12V22L1.68356 18.2753C1.11176 17.8422 0.825863 17.6256 0.723423 17.3607C0.633682 17.1286 0.633682 16.8714 0.723423 16.6393C0.825863 16.3744 1.11176 16.1578 1.68356 15.7247L6.6001 12Z" fill="#2D2D2D" fill-opacity="0.4"/>
<rect x="6.6001" width="135" height="34" rx="10" fill="#2D2D2D" fill-opacity="0.4"/>
<mask id="path-3-outside-1_200_906" maskUnits="userSpaceOnUse" x="16.6001" y="11" width="115" height="15" fill="black">
<rect fill="white" x="16.6001" y="11" width="115" height="15"/>
<path d="M17.8321 22V12.13H21.8501C22.8861 12.13 23.6841 12.382 24.2441 12.886C24.8041 13.3807 25.0841 14.0713 25.0841 14.958C25.0841 15.826 24.8041 16.5167 24.2441 17.03C23.6841 17.534 22.8861 17.786 21.8501 17.786H18.9941V22H17.8321ZM18.9941 16.82H21.7381C22.4568 16.82 22.9981 16.6567 23.3621 16.33C23.7354 16.0033 23.9221 15.546 23.9221 14.958C23.9221 14.3607 23.7354 13.8987 23.3621 13.572C22.9981 13.2453 22.4568 13.082 21.7381 13.082H18.9941V16.82ZM29.7985 22.126C28.6972 22.126 27.8292 21.8087 27.1945 21.174C26.5598 20.53 26.2425 19.6387 26.2425 18.5C26.2425 17.7627 26.3825 17.1233 26.6625 16.582C26.9425 16.0313 27.3345 15.6067 27.8385 15.308C28.3425 15 28.9212 14.846 29.5745 14.846C30.2185 14.846 30.7598 14.9813 31.1985 15.252C31.6372 15.5227 31.9732 15.91 32.2065 16.414C32.4398 16.9087 32.5565 17.4967 32.5565 18.178V18.598H27.1105V17.884H31.8145L31.5765 18.066C31.5765 17.3193 31.4085 16.736 31.0725 16.316C30.7365 15.896 30.2372 15.686 29.5745 15.686C28.8745 15.686 28.3285 15.9333 27.9365 16.428C27.5445 16.9133 27.3485 17.5713 27.3485 18.402V18.528C27.3485 19.4053 27.5632 20.0727 27.9925 20.53C28.4312 20.978 29.0425 21.202 29.8265 21.202C30.2465 21.202 30.6385 21.1413 31.0025 21.02C31.3758 20.8893 31.7305 20.6793 32.0665 20.39L32.4585 21.188C32.1505 21.4867 31.7585 21.72 31.2825 21.888C30.8158 22.0467 30.3212 22.126 29.7985 22.126ZM38.9084 22V19.144C38.6378 19.3027 38.3438 19.424 38.0264 19.508C37.7091 19.592 37.3684 19.634 37.0044 19.634C36.0151 19.634 35.2778 19.4053 34.7924 18.948C34.3164 18.4813 34.0784 17.7767 34.0784 16.834V14.972H35.2124V16.75C35.2124 17.4313 35.3664 17.926 35.6744 18.234C35.9918 18.5327 36.4864 18.682 37.1584 18.682C37.5038 18.682 37.8118 18.6447 38.0824 18.57C38.3531 18.4953 38.6191 18.3693 38.8804 18.192V14.972H40.0144V22H38.9084ZM42.2611 22V14.972H43.3951V17.492H45.5091C46.4144 17.492 47.0958 17.688 47.5531 18.08C48.0198 18.4627 48.2531 19.0087 48.2531 19.718C48.2531 20.194 48.1458 20.6047 47.9311 20.95C47.7258 21.286 47.4178 21.5473 47.0071 21.734C46.6058 21.9113 46.1064 22 45.5091 22H42.2611ZM43.3951 21.188H45.4111C45.9804 21.188 46.4144 21.0713 46.7131 20.838C47.0118 20.5953 47.1611 20.2267 47.1611 19.732C47.1611 19.2373 47.0118 18.878 46.7131 18.654C46.4238 18.4207 45.9898 18.304 45.4111 18.304H43.3951V21.188ZM53.6511 25.024V16.596C53.6511 16.3347 53.6371 16.0687 53.6091 15.798C53.5904 15.518 53.5671 15.2427 53.5391 14.972H54.6311L54.7851 16.638H54.6171C54.7664 16.0873 55.0698 15.6533 55.5271 15.336C55.9844 15.0093 56.5304 14.846 57.1651 14.846C57.7998 14.846 58.3458 14.9907 58.8031 15.28C59.2698 15.5693 59.6338 15.9847 59.8951 16.526C60.1564 17.0673 60.2871 17.7207 60.2871 18.486C60.2871 19.242 60.1564 19.8907 59.8951 20.432C59.6431 20.9733 59.2838 21.3933 58.8171 21.692C58.3504 21.9813 57.7998 22.126 57.1651 22.126C56.5398 22.126 55.9984 21.9673 55.5411 21.65C55.0838 21.3327 54.7804 20.8987 54.6311 20.348H54.7851V25.024H53.6511ZM56.9411 21.202C57.6131 21.202 58.1451 20.9733 58.5371 20.516C58.9384 20.0493 59.1391 19.3727 59.1391 18.486C59.1391 17.59 58.9384 16.9133 58.5371 16.456C58.1451 15.9893 57.6131 15.756 56.9411 15.756C56.2784 15.756 55.7464 15.9893 55.3451 16.456C54.9531 16.9133 54.7571 17.59 54.7571 18.486C54.7571 19.3727 54.9531 20.0493 55.3451 20.516C55.7464 20.9733 56.2784 21.202 56.9411 21.202ZM65.318 22.126C64.2167 22.126 63.3487 21.8087 62.714 21.174C62.0794 20.53 61.762 19.6387 61.762 18.5C61.762 17.7627 61.902 17.1233 62.182 16.582C62.462 16.0313 62.854 15.6067 63.358 15.308C63.862 15 64.4407 14.846 65.094 14.846C65.738 14.846 66.2794 14.9813 66.718 15.252C67.1567 15.5227 67.4927 15.91 67.726 16.414C67.9594 16.9087 68.076 17.4967 68.076 18.178V18.598H62.63V17.884H67.334L67.096 18.066C67.096 17.3193 66.928 16.736 66.592 16.316C66.256 15.896 65.7567 15.686 65.094 15.686C64.394 15.686 63.848 15.9333 63.456 16.428C63.064 16.9133 62.868 17.5713 62.868 18.402V18.528C62.868 19.4053 63.0827 20.0727 63.512 20.53C63.9507 20.978 64.562 21.202 65.346 21.202C65.766 21.202 66.158 21.1413 66.522 21.02C66.8954 20.8893 67.25 20.6793 67.586 20.39L67.978 21.188C67.67 21.4867 67.278 21.72 66.802 21.888C66.3354 22.0467 65.8407 22.126 65.318 22.126ZM69.892 22V14.972H75.982V22H74.848V15.868H71.026V22H69.892ZM81.3961 22.126C80.2948 22.126 79.4268 21.8087 78.7921 21.174C78.1575 20.53 77.8401 19.6387 77.8401 18.5C77.8401 17.7627 77.9801 17.1233 78.2601 16.582C78.5401 16.0313 78.9321 15.6067 79.4361 15.308C79.9401 15 80.5188 14.846 81.1721 14.846C81.8161 14.846 82.3575 14.9813 82.7961 15.252C83.2348 15.5227 83.5708 15.91 83.8041 16.414C84.0375 16.9087 84.1541 17.4967 84.1541 18.178V18.598H78.7081V17.884H83.4121L83.1741 18.066C83.1741 17.3193 83.0061 16.736 82.6701 16.316C82.3341 15.896 81.8348 15.686 81.1721 15.686C80.4721 15.686 79.9261 15.9333 79.5341 16.428C79.1421 16.9133 78.9461 17.5713 78.9461 18.402V18.528C78.9461 19.4053 79.1608 20.0727 79.5901 20.53C80.0288 20.978 80.6401 21.202 81.4241 21.202C81.8441 21.202 82.2361 21.1413 82.6001 21.02C82.9735 20.8893 83.3281 20.6793 83.6641 20.39L84.0561 21.188C83.7481 21.4867 83.3561 21.72 82.8801 21.888C82.4135 22.0467 81.9188 22.126 81.3961 22.126ZM87.4681 22V15.882H84.9201V14.972H91.1641V15.882H88.6021V22H87.4681ZM92.3412 22V14.972H93.3772V20.95H92.9992L97.4792 14.972H98.4312V22H97.4092V16.008H97.7872L93.3072 22H92.3412ZM102.165 22V15.882H99.6174V14.972H105.861V15.882H103.299V22H102.165ZM109.951 22.126C109.279 22.126 108.691 21.9813 108.187 21.692C107.692 21.3933 107.31 20.9733 107.039 20.432C106.768 19.8813 106.633 19.2327 106.633 18.486C106.633 17.73 106.768 17.0813 107.039 16.54C107.31 15.9987 107.692 15.5833 108.187 15.294C108.691 14.9953 109.279 14.846 109.951 14.846C110.632 14.846 111.22 14.9953 111.715 15.294C112.219 15.5833 112.606 15.9987 112.877 16.54C113.157 17.0813 113.297 17.73 113.297 18.486C113.297 19.2327 113.157 19.8813 112.877 20.432C112.606 20.9733 112.219 21.3933 111.715 21.692C111.22 21.9813 110.632 22.126 109.951 22.126ZM109.951 21.202C110.623 21.202 111.155 20.9733 111.547 20.516C111.939 20.0493 112.135 19.3727 112.135 18.486C112.135 17.59 111.934 16.9133 111.533 16.456C111.141 15.9893 110.614 15.756 109.951 15.756C109.288 15.756 108.761 15.9893 108.369 16.456C107.977 16.9133 107.781 17.59 107.781 18.486C107.781 19.3727 107.977 20.0493 108.369 20.516C108.761 20.9733 109.288 21.202 109.951 21.202ZM115.202 25.024V16.596C115.202 16.3347 115.188 16.0687 115.16 15.798C115.141 15.518 115.118 15.2427 115.09 14.972H116.182L116.336 16.638H116.168C116.317 16.0873 116.621 15.6533 117.078 15.336C117.535 15.0093 118.081 14.846 118.716 14.846C119.351 14.846 119.897 14.9907 120.354 15.28C120.821 15.5693 121.185 15.9847 121.446 16.526C121.707 17.0673 121.838 17.7207 121.838 18.486C121.838 19.242 121.707 19.8907 121.446 20.432C121.194 20.9733 120.835 21.3933 120.368 21.692C119.901 21.9813 119.351 22.126 118.716 22.126C118.091 22.126 117.549 21.9673 117.092 21.65C116.635 21.3327 116.331 20.8987 116.182 20.348H116.336V25.024H115.202ZM118.492 21.202C119.164 21.202 119.696 20.9733 120.088 20.516C120.489 20.0493 120.69 19.3727 120.69 18.486C120.69 17.59 120.489 16.9133 120.088 16.456C119.696 15.9893 119.164 15.756 118.492 15.756C117.829 15.756 117.297 15.9893 116.896 16.456C116.504 16.9133 116.308 17.59 116.308 18.486C116.308 19.3727 116.504 20.0493 116.896 20.516C117.297 20.9733 117.829 21.202 118.492 21.202ZM126.421 22.126C125.795 22.126 125.249 21.9813 124.783 21.692C124.316 21.3933 123.952 20.9733 123.691 20.432C123.439 19.8907 123.313 19.242 123.313 18.486C123.313 17.7207 123.439 17.0673 123.691 16.526C123.952 15.9847 124.316 15.5693 124.783 15.28C125.249 14.9907 125.795 14.846 126.421 14.846C127.055 14.846 127.601 15.0093 128.059 15.336C128.525 15.6533 128.833 16.0873 128.983 16.638H128.815L128.969 14.972H130.061C130.033 15.2427 130.005 15.518 129.977 15.798C129.958 16.0687 129.949 16.3347 129.949 16.596V22H128.815V20.348H128.969C128.819 20.8987 128.511 21.3327 128.045 21.65C127.578 21.9673 127.037 22.126 126.421 22.126ZM126.645 21.202C127.317 21.202 127.849 20.9733 128.241 20.516C128.633 20.0493 128.829 19.3727 128.829 18.486C128.829 17.59 128.633 16.9133 128.241 16.456C127.849 15.9893 127.317 15.756 126.645 15.756C125.982 15.756 125.45 15.9893 125.049 16.456C124.657 16.9133 124.461 17.59 124.461 18.486C124.461 19.3727 124.657 20.0493 125.049 20.516C125.45 20.9733 125.982 21.202 126.645 21.202Z"/>
</mask>
<path d="M17.8321 22V12.13H21.8501C22.8861 12.13 23.6841 12.382 24.2441 12.886C24.8041 13.3807 25.0841 14.0713 25.0841 14.958C25.0841 15.826 24.8041 16.5167 24.2441 17.03C23.6841 17.534 22.8861 17.786 21.8501 17.786H18.9941V22H17.8321ZM18.9941 16.82H21.7381C22.4568 16.82 22.9981 16.6567 23.3621 16.33C23.7354 16.0033 23.9221 15.546 23.9221 14.958C23.9221 14.3607 23.7354 13.8987 23.3621 13.572C22.9981 13.2453 22.4568 13.082 21.7381 13.082H18.9941V16.82ZM29.7985 22.126C28.6972 22.126 27.8292 21.8087 27.1945 21.174C26.5598 20.53 26.2425 19.6387 26.2425 18.5C26.2425 17.7627 26.3825 17.1233 26.6625 16.582C26.9425 16.0313 27.3345 15.6067 27.8385 15.308C28.3425 15 28.9212 14.846 29.5745 14.846C30.2185 14.846 30.7598 14.9813 31.1985 15.252C31.6372 15.5227 31.9732 15.91 32.2065 16.414C32.4398 16.9087 32.5565 17.4967 32.5565 18.178V18.598H27.1105V17.884H31.8145L31.5765 18.066C31.5765 17.3193 31.4085 16.736 31.0725 16.316C30.7365 15.896 30.2372 15.686 29.5745 15.686C28.8745 15.686 28.3285 15.9333 27.9365 16.428C27.5445 16.9133 27.3485 17.5713 27.3485 18.402V18.528C27.3485 19.4053 27.5632 20.0727 27.9925 20.53C28.4312 20.978 29.0425 21.202 29.8265 21.202C30.2465 21.202 30.6385 21.1413 31.0025 21.02C31.3758 20.8893 31.7305 20.6793 32.0665 20.39L32.4585 21.188C32.1505 21.4867 31.7585 21.72 31.2825 21.888C30.8158 22.0467 30.3212 22.126 29.7985 22.126ZM38.9084 22V19.144C38.6378 19.3027 38.3438 19.424 38.0264 19.508C37.7091 19.592 37.3684 19.634 37.0044 19.634C36.0151 19.634 35.2778 19.4053 34.7924 18.948C34.3164 18.4813 34.0784 17.7767 34.0784 16.834V14.972H35.2124V16.75C35.2124 17.4313 35.3664 17.926 35.6744 18.234C35.9918 18.5327 36.4864 18.682 37.1584 18.682C37.5038 18.682 37.8118 18.6447 38.0824 18.57C38.3531 18.4953 38.6191 18.3693 38.8804 18.192V14.972H40.0144V22H38.9084ZM42.2611 22V14.972H43.3951V17.492H45.5091C46.4144 17.492 47.0958 17.688 47.5531 18.08C48.0198 18.4627 48.2531 19.0087 48.2531 19.718C48.2531 20.194 48.1458 20.6047 47.9311 20.95C47.7258 21.286 47.4178 21.5473 47.0071 21.734C46.6058 21.9113 46.1064 22 45.5091 22H42.2611ZM43.3951 21.188H45.4111C45.9804 21.188 46.4144 21.0713 46.7131 20.838C47.0118 20.5953 47.1611 20.2267 47.1611 19.732C47.1611 19.2373 47.0118 18.878 46.7131 18.654C46.4238 18.4207 45.9898 18.304 45.4111 18.304H43.3951V21.188ZM53.6511 25.024V16.596C53.6511 16.3347 53.6371 16.0687 53.6091 15.798C53.5904 15.518 53.5671 15.2427 53.5391 14.972H54.6311L54.7851 16.638H54.6171C54.7664 16.0873 55.0698 15.6533 55.5271 15.336C55.9844 15.0093 56.5304 14.846 57.1651 14.846C57.7998 14.846 58.3458 14.9907 58.8031 15.28C59.2698 15.5693 59.6338 15.9847 59.8951 16.526C60.1564 17.0673 60.2871 17.7207 60.2871 18.486C60.2871 19.242 60.1564 19.8907 59.8951 20.432C59.6431 20.9733 59.2838 21.3933 58.8171 21.692C58.3504 21.9813 57.7998 22.126 57.1651 22.126C56.5398 22.126 55.9984 21.9673 55.5411 21.65C55.0838 21.3327 54.7804 20.8987 54.6311 20.348H54.7851V25.024H53.6511ZM56.9411 21.202C57.6131 21.202 58.1451 20.9733 58.5371 20.516C58.9384 20.0493 59.1391 19.3727 59.1391 18.486C59.1391 17.59 58.9384 16.9133 58.5371 16.456C58.1451 15.9893 57.6131 15.756 56.9411 15.756C56.2784 15.756 55.7464 15.9893 55.3451 16.456C54.9531 16.9133 54.7571 17.59 54.7571 18.486C54.7571 19.3727 54.9531 20.0493 55.3451 20.516C55.7464 20.9733 56.2784 21.202 56.9411 21.202ZM65.318 22.126C64.2167 22.126 63.3487 21.8087 62.714 21.174C62.0794 20.53 61.762 19.6387 61.762 18.5C61.762 17.7627 61.902 17.1233 62.182 16.582C62.462 16.0313 62.854 15.6067 63.358 15.308C63.862 15 64.4407 14.846 65.094 14.846C65.738 14.846 66.2794 14.9813 66.718 15.252C67.1567 15.5227 67.4927 15.91 67.726 16.414C67.9594 16.9087 68.076 17.4967 68.076 18.178V18.598H62.63V17.884H67.334L67.096 18.066C67.096 17.3193 66.928 16.736 66.592 16.316C66.256 15.896 65.7567 15.686 65.094 15.686C64.394 15.686 63.848 15.9333 63.456 16.428C63.064 16.9133 62.868 17.5713 62.868 18.402V18.528C62.868 19.4053 63.0827 20.0727 63.512 20.53C63.9507 20.978 64.562 21.202 65.346 21.202C65.766 21.202 66.158 21.1413 66.522 21.02C66.8954 20.8893 67.25 20.6793 67.586 20.39L67.978 21.188C67.67 21.4867 67.278 21.72 66.802 21.888C66.3354 22.0467 65.8407 22.126 65.318 22.126ZM69.892 22V14.972H75.982V22H74.848V15.868H71.026V22H69.892ZM81.3961 22.126C80.2948 22.126 79.4268 21.8087 78.7921 21.174C78.1575 20.53 77.8401 19.6387 77.8401 18.5C77.8401 17.7627 77.9801 17.1233 78.2601 16.582C78.5401 16.0313 78.9321 15.6067 79.4361 15.308C79.9401 15 80.5188 14.846 81.1721 14.846C81.8161 14.846 82.3575 14.9813 82.7961 15.252C83.2348 15.5227 83.5708 15.91 83.8041 16.414C84.0375 16.9087 84.1541 17.4967 84.1541 18.178V18.598H78.7081V17.884H83.4121L83.1741 18.066C83.1741 17.3193 83.0061 16.736 82.6701 16.316C82.3341 15.896 81.8348 15.686 81.1721 15.686C80.4721 15.686 79.9261 15.9333 79.5341 16.428C79.1421 16.9133 78.9461 17.5713 78.9461 18.402V18.528C78.9461 19.4053 79.1608 20.0727 79.5901 20.53C80.0288 20.978 80.6401 21.202 81.4241 21.202C81.8441 21.202 82.2361 21.1413 82.6001 21.02C82.9735 20.8893 83.3281 20.6793 83.6641 20.39L84.0561 21.188C83.7481 21.4867 83.3561 21.72 82.8801 21.888C82.4135 22.0467 81.9188 22.126 81.3961 22.126ZM87.4681 22V15.882H84.9201V14.972H91.1641V15.882H88.6021V22H87.4681ZM92.3412 22V14.972H93.3772V20.95H92.9992L97.4792 14.972H98.4312V22H97.4092V16.008H97.7872L93.3072 22H92.3412ZM102.165 22V15.882H99.6174V14.972H105.861V15.882H103.299V22H102.165ZM109.951 22.126C109.279 22.126 108.691 21.9813 108.187 21.692C107.692 21.3933 107.31 20.9733 107.039 20.432C106.768 19.8813 106.633 19.2327 106.633 18.486C106.633 17.73 106.768 17.0813 107.039 16.54C107.31 15.9987 107.692 15.5833 108.187 15.294C108.691 14.9953 109.279 14.846 109.951 14.846C110.632 14.846 111.22 14.9953 111.715 15.294C112.219 15.5833 112.606 15.9987 112.877 16.54C113.157 17.0813 113.297 17.73 113.297 18.486C113.297 19.2327 113.157 19.8813 112.877 20.432C112.606 20.9733 112.219 21.3933 111.715 21.692C111.22 21.9813 110.632 22.126 109.951 22.126ZM109.951 21.202C110.623 21.202 111.155 20.9733 111.547 20.516C111.939 20.0493 112.135 19.3727 112.135 18.486C112.135 17.59 111.934 16.9133 111.533 16.456C111.141 15.9893 110.614 15.756 109.951 15.756C109.288 15.756 108.761 15.9893 108.369 16.456C107.977 16.9133 107.781 17.59 107.781 18.486C107.781 19.3727 107.977 20.0493 108.369 20.516C108.761 20.9733 109.288 21.202 109.951 21.202ZM115.202 25.024V16.596C115.202 16.3347 115.188 16.0687 115.16 15.798C115.141 15.518 115.118 15.2427 115.09 14.972H116.182L116.336 16.638H116.168C116.317 16.0873 116.621 15.6533 117.078 15.336C117.535 15.0093 118.081 14.846 118.716 14.846C119.351 14.846 119.897 14.9907 120.354 15.28C120.821 15.5693 121.185 15.9847 121.446 16.526C121.707 17.0673 121.838 17.7207 121.838 18.486C121.838 19.242 121.707 19.8907 121.446 20.432C121.194 20.9733 120.835 21.3933 120.368 21.692C119.901 21.9813 119.351 22.126 118.716 22.126C118.091 22.126 117.549 21.9673 117.092 21.65C116.635 21.3327 116.331 20.8987 116.182 20.348H116.336V25.024H115.202ZM118.492 21.202C119.164 21.202 119.696 20.9733 120.088 20.516C120.489 20.0493 120.69 19.3727 120.69 18.486C120.69 17.59 120.489 16.9133 120.088 16.456C119.696 15.9893 119.164 15.756 118.492 15.756C117.829 15.756 117.297 15.9893 116.896 16.456C116.504 16.9133 116.308 17.59 116.308 18.486C116.308 19.3727 116.504 20.0493 116.896 20.516C117.297 20.9733 117.829 21.202 118.492 21.202ZM126.421 22.126C125.795 22.126 125.249 21.9813 124.783 21.692C124.316 21.3933 123.952 20.9733 123.691 20.432C123.439 19.8907 123.313 19.242 123.313 18.486C123.313 17.7207 123.439 17.0673 123.691 16.526C123.952 15.9847 124.316 15.5693 124.783 15.28C125.249 14.9907 125.795 14.846 126.421 14.846C127.055 14.846 127.601 15.0093 128.059 15.336C128.525 15.6533 128.833 16.0873 128.983 16.638H128.815L128.969 14.972H130.061C130.033 15.2427 130.005 15.518 129.977 15.798C129.958 16.0687 129.949 16.3347 129.949 16.596V22H128.815V20.348H128.969C128.819 20.8987 128.511 21.3327 128.045 21.65C127.578 21.9673 127.037 22.126 126.421 22.126ZM126.645 21.202C127.317 21.202 127.849 20.9733 128.241 20.516C128.633 20.0493 128.829 19.3727 128.829 18.486C128.829 17.59 128.633 16.9133 128.241 16.456C127.849 15.9893 127.317 15.756 126.645 15.756C125.982 15.756 125.45 15.9893 125.049 16.456C124.657 16.9133 124.461 17.59 124.461 18.486C124.461 19.3727 124.657 20.0493 125.049 20.516C125.45 20.9733 125.982 21.202 126.645 21.202Z" fill="white"/>
<path d="M17.8321 22H17.3321V22.5H17.8321V22ZM17.8321 12.13V11.63H17.3321V12.13H17.8321ZM24.2441 12.886L23.9096 13.2577L23.9131 13.2607L24.2441 12.886ZM24.2441 17.03L24.5786 17.4017L24.582 17.3986L24.2441 17.03ZM18.9941 17.786V17.286H18.4941V17.786H18.9941ZM18.9941 22V22.5H19.4941V22H18.9941ZM18.9941 16.82H18.4941V17.32H18.9941V16.82ZM23.3621 16.33L23.0328 15.9537L23.0281 15.9579L23.3621 16.33ZM23.3621 13.572L23.0281 13.9441L23.0328 13.9483L23.3621 13.572ZM18.9941 13.082V12.582H18.4941V13.082H18.9941ZM18.3321 22V12.13H17.3321V22H18.3321ZM17.8321 12.63H21.8501V11.63H17.8321V12.63ZM21.8501 12.63C22.8092 12.63 23.471 12.8629 23.9096 13.2576L24.5786 12.5144C23.8972 11.9011 22.963 11.63 21.8501 11.63V12.63ZM23.9131 13.2607C24.3455 13.6427 24.5841 14.1854 24.5841 14.958H25.5841C25.5841 13.9573 25.2627 13.1187 24.5751 12.5113L23.9131 13.2607ZM24.5841 14.958C24.5841 15.7079 24.3477 16.2567 23.9062 16.6614L24.582 17.3986C25.2605 16.7766 25.5841 15.9441 25.5841 14.958H24.5841ZM23.9096 16.6584C23.471 17.0531 22.8092 17.286 21.8501 17.286V18.286C22.963 18.286 23.8972 18.0149 24.5786 17.4016L23.9096 16.6584ZM21.8501 17.286H18.9941V18.286H21.8501V17.286ZM18.4941 17.786V22H19.4941V17.786H18.4941ZM18.9941 21.5H17.8321V22.5H18.9941V21.5ZM18.9941 17.32H21.7381V16.32H18.9941V17.32ZM21.7381 17.32C22.5233 17.32 23.2054 17.1425 23.6961 16.7021L23.0281 15.9579C22.7908 16.1709 22.3902 16.32 21.7381 16.32V17.32ZM23.6914 16.7063C24.1935 16.2669 24.4221 15.6608 24.4221 14.958H23.4221C23.4221 15.4312 23.2774 15.7397 23.0328 15.9537L23.6914 16.7063ZM24.4221 14.958C24.4221 14.2486 24.1953 13.6366 23.6914 13.1957L23.0328 13.9483C23.2756 14.1607 23.4221 14.4727 23.4221 14.958H24.4221ZM23.6961 13.1999C23.2054 12.7595 22.5233 12.582 21.7381 12.582V13.582C22.3902 13.582 22.7908 13.7311 23.0281 13.9441L23.6961 13.1999ZM21.7381 12.582H18.9941V13.582H21.7381V12.582ZM18.4941 13.082V16.82H19.4941V13.082H18.4941ZM27.1945 21.174L26.8384 21.525L26.8409 21.5276L27.1945 21.174ZM26.6625 16.582L27.1066 16.8117L27.1082 16.8086L26.6625 16.582ZM27.8385 15.308L28.0934 15.7382L28.0992 15.7346L27.8385 15.308ZM31.1985 15.252L30.9359 15.6775L30.9359 15.6775L31.1985 15.252ZM32.2065 16.414L31.7527 16.6241L31.7543 16.6273L32.2065 16.414ZM32.5565 18.598V19.098H33.0565V18.598H32.5565ZM27.1105 18.598H26.6105V19.098H27.1105V18.598ZM27.1105 17.884V17.384H26.6105V17.884H27.1105ZM31.8145 17.884L32.1182 18.2812L33.2915 17.384H31.8145V17.884ZM31.5765 18.066H31.0765V19.0778L31.8802 18.4632L31.5765 18.066ZM31.0725 16.316L31.4629 16.0037L31.4629 16.0037L31.0725 16.316ZM27.9365 16.428L28.3255 16.7422L28.3284 16.7385L27.9365 16.428ZM27.9925 20.53L27.6279 20.8723L27.6352 20.8798L27.9925 20.53ZM31.0025 21.02L31.1606 21.4944L31.1677 21.4919L31.0025 21.02ZM32.0665 20.39L32.5153 20.1695L32.2302 19.5892L31.7402 20.0111L32.0665 20.39ZM32.4585 21.188L32.8066 21.547L33.0676 21.2939L32.9073 20.9675L32.4585 21.188ZM31.2825 21.888L31.4435 22.3614L31.4489 22.3595L31.2825 21.888ZM29.7985 21.626C28.7978 21.626 28.0685 21.3409 27.548 20.8204L26.8409 21.5276C27.5898 22.2764 28.5965 22.626 29.7985 22.626V21.626ZM27.5506 20.823C27.0305 20.2953 26.7425 19.5431 26.7425 18.5H25.7425C25.7425 19.7342 26.0891 20.7647 26.8384 21.525L27.5506 20.823ZM26.7425 18.5C26.7425 17.826 26.8703 17.2686 27.1066 16.8117L26.2184 16.3523C25.8947 16.978 25.7425 17.6993 25.7425 18.5H26.7425ZM27.1082 16.8086C27.3476 16.3377 27.6755 15.9858 28.0934 15.7381L27.5836 14.8779C26.9934 15.2276 26.5373 15.725 26.2168 16.3554L27.1082 16.8086ZM28.0992 15.7346C28.5165 15.4796 29.0031 15.346 29.5745 15.346V14.346C28.8392 14.346 28.1684 14.5204 27.5778 14.8814L28.0992 15.7346ZM29.5745 15.346C30.1487 15.346 30.5937 15.4664 30.9359 15.6775L31.461 14.8265C30.9259 14.4963 30.2882 14.346 29.5745 14.346V15.346ZM30.9359 15.6775C31.2846 15.8926 31.5573 16.2019 31.7528 16.6241L32.6602 16.2039C32.389 15.6181 31.9897 15.1527 31.461 14.8265L30.9359 15.6775ZM31.7543 16.6273C31.9494 17.041 32.0565 17.5528 32.0565 18.178H33.0565C33.0565 17.4406 32.9303 16.7764 32.6587 16.2007L31.7543 16.6273ZM32.0565 18.178V18.598H33.0565V18.178H32.0565ZM32.5565 18.098H27.1105V19.098H32.5565V18.098ZM27.6105 18.598V17.884H26.6105V18.598H27.6105ZM27.1105 18.384H31.8145V17.384H27.1105V18.384ZM31.5108 17.4868L31.2728 17.6688L31.8802 18.4632L32.1182 18.2812L31.5108 17.4868ZM32.0765 18.066C32.0765 17.2493 31.8929 16.5412 31.4629 16.0037L30.6821 16.6283C30.924 16.9308 31.0765 17.3894 31.0765 18.066H32.0765ZM31.4629 16.0037C31.0102 15.4377 30.3502 15.186 29.5745 15.186V16.186C30.1241 16.186 30.4628 16.3543 30.6821 16.6283L31.4629 16.0037ZM29.5745 15.186C28.7408 15.186 28.0427 15.489 27.5446 16.1175L28.3284 16.7385C28.6143 16.3777 29.0082 16.186 29.5745 16.186V15.186ZM27.5475 16.1138C27.063 16.7138 26.8485 17.495 26.8485 18.402H27.8485C27.8485 17.6477 28.026 17.1129 28.3255 16.7422L27.5475 16.1138ZM26.8485 18.402V18.528H27.8485V18.402H26.8485ZM26.8485 18.528C26.8485 19.4815 27.0821 20.2907 27.628 20.8722L28.357 20.1878C28.0443 19.8546 27.8485 19.3292 27.8485 18.528H26.8485ZM27.6352 20.8798C28.1903 21.4467 28.9437 21.702 29.8265 21.702V20.702C29.1413 20.702 28.672 20.5093 28.3497 20.1802L27.6352 20.8798ZM29.8265 21.702C30.2952 21.702 30.741 21.6342 31.1606 21.4943L30.8444 20.5457C30.5359 20.6485 30.1978 20.702 29.8265 20.702V21.702ZM31.1677 21.4919C31.6068 21.3382 32.0151 21.0941 32.3928 20.7689L31.7402 20.0111C31.4459 20.2645 31.1449 20.4404 30.8373 20.5481L31.1677 21.4919ZM31.6177 20.6105L32.0097 21.4085L32.9073 20.9675L32.5153 20.1695L31.6177 20.6105ZM32.1104 20.829C31.8625 21.0695 31.536 21.2683 31.1161 21.4165L31.4489 22.3595C31.981 22.1717 32.4385 21.9039 32.8066 21.547L32.1104 20.829ZM31.1215 21.4146C30.7098 21.5546 30.2697 21.626 29.7985 21.626V22.626C30.3726 22.626 30.9219 22.5387 31.4434 22.3614L31.1215 21.4146ZM38.9084 22H38.4084V22.5H38.9084V22ZM38.9084 19.144H39.4084V18.2713L38.6556 18.7127L38.9084 19.144ZM38.0264 19.508L38.1544 19.9914L38.1544 19.9914L38.0264 19.508ZM34.7924 18.948L34.4423 19.3051L34.4495 19.3119L34.7924 18.948ZM34.0784 14.972V14.472H33.5784V14.972H34.0784ZM35.2124 14.972H35.7124V14.472H35.2124V14.972ZM35.6744 18.234L35.3209 18.5876L35.3262 18.5929L35.3318 18.5981L35.6744 18.234ZM38.0824 18.57L38.2154 19.052L38.2154 19.052L38.0824 18.57ZM38.8804 18.192L39.1612 18.6057L39.3804 18.457V18.192H38.8804ZM38.8804 14.972V14.472H38.3804V14.972H38.8804ZM40.0144 14.972H40.5144V14.472H40.0144V14.972ZM40.0144 22V22.5H40.5144V22H40.0144ZM39.4084 22V19.144H38.4084V22H39.4084ZM38.6556 18.7127C38.4258 18.8474 38.1741 18.9517 37.8985 19.0246L38.1544 19.9914C38.5135 19.8963 38.8498 19.758 39.1613 19.5753L38.6556 18.7127ZM37.8985 19.0246C37.6272 19.0965 37.3299 19.134 37.0044 19.134V20.134C37.407 20.134 37.7911 20.0875 38.1544 19.9914L37.8985 19.0246ZM37.0044 19.134C36.0819 19.134 35.4916 18.9198 35.1353 18.5841L34.4495 19.3119C35.064 19.8909 35.9483 20.134 37.0044 20.134V19.134ZM35.1425 18.591C34.7963 18.2516 34.5784 17.6988 34.5784 16.834H33.5784C33.5784 17.8546 33.8366 18.7111 34.4424 19.305L35.1425 18.591ZM34.5784 16.834V14.972H33.5784V16.834H34.5784ZM34.0784 15.472H35.2124V14.472H34.0784V15.472ZM34.7124 14.972V16.75H35.7124V14.972H34.7124ZM34.7124 16.75C34.7124 17.4913 34.8779 18.1446 35.3209 18.5876L36.028 17.8804C35.855 17.7074 35.7124 17.3714 35.7124 16.75H34.7124ZM35.3318 18.5981C35.7812 19.0211 36.4259 19.182 37.1584 19.182V18.182C36.5469 18.182 36.2024 18.0443 36.0171 17.8699L35.3318 18.5981ZM37.1584 19.182C37.5388 19.182 37.8928 19.141 38.2154 19.052L37.9495 18.088C37.7307 18.1484 37.4687 18.182 37.1584 18.182V19.182ZM38.2154 19.052C38.5449 18.9611 38.8602 18.81 39.1612 18.6057L38.5997 17.7783C38.378 17.9287 38.1614 18.0296 37.9495 18.088L38.2154 19.052ZM39.3804 18.192V14.972H38.3804V18.192H39.3804ZM38.8804 15.472H40.0144V14.472H38.8804V15.472ZM39.5144 14.972V22H40.5144V14.972H39.5144ZM40.0144 21.5H38.9084V22.5H40.0144V21.5ZM42.2611 22H41.7611V22.5H42.2611V22ZM42.2611 14.972V14.472H41.7611V14.972H42.2611ZM43.3951 14.972H43.8951V14.472H43.3951V14.972ZM43.3951 17.492H42.8951V17.992H43.3951V17.492ZM47.5531 18.08L47.2276 18.4597L47.2361 18.4666L47.5531 18.08ZM47.9311 20.95L47.5065 20.686L47.5045 20.6893L47.9311 20.95ZM47.0071 21.734L47.2092 22.1914L47.214 22.1892L47.0071 21.734ZM43.3951 21.188H42.8951V21.688H43.3951V21.188ZM46.7131 20.838L47.021 21.2321L47.0284 21.2261L46.7131 20.838ZM46.7131 18.654L46.3992 19.0432L46.4061 19.0487L46.4131 19.054L46.7131 18.654ZM43.3951 18.304V17.804H42.8951V18.304H43.3951ZM42.7611 22V14.972H41.7611V22H42.7611ZM42.2611 15.472H43.3951V14.472H42.2611V15.472ZM42.8951 14.972V17.492H43.8951V14.972H42.8951ZM43.3951 17.992H45.5091V16.992H43.3951V17.992ZM45.5091 17.992C46.3531 17.992 46.897 18.1762 47.2277 18.4596L47.8785 17.7004C47.2946 17.1998 46.4758 16.992 45.5091 16.992V17.992ZM47.2361 18.4666C47.5661 18.7372 47.7531 19.1292 47.7531 19.718H48.7531C48.7531 18.8881 48.4735 18.1881 47.8702 17.6934L47.2361 18.4666ZM47.7531 19.718C47.7531 20.1169 47.664 20.4326 47.5065 20.686L48.3558 21.214C48.6276 20.7767 48.7531 20.2711 48.7531 19.718H47.7531ZM47.5045 20.6893C47.3586 20.928 47.1335 21.1273 46.8002 21.2788L47.214 22.1892C47.7021 21.9673 48.093 21.644 48.3578 21.2107L47.5045 20.6893ZM46.805 21.2767C46.4859 21.4177 46.0605 21.5 45.5091 21.5V22.5C46.1524 22.5 46.7256 22.405 47.2092 22.1913L46.805 21.2767ZM45.5091 21.5H42.2611V22.5H45.5091V21.5ZM43.3951 21.688H45.4111V20.688H43.3951V21.688ZM45.4111 21.688C46.0385 21.688 46.5999 21.561 47.0209 21.232L46.4053 20.444C46.229 20.5817 45.9224 20.688 45.4111 20.688V21.688ZM47.0284 21.2261C47.4758 20.8625 47.6611 20.3307 47.6611 19.732H46.6611C46.6611 20.1226 46.5477 20.3281 46.3978 20.4499L47.0284 21.2261ZM47.6611 19.732C47.6611 19.1356 47.4764 18.6014 47.0131 18.254L46.4131 19.054C46.5472 19.1546 46.6611 19.3391 46.6611 19.732H47.6611ZM47.027 18.2648C46.6112 17.9294 46.0439 17.804 45.4111 17.804V18.804C45.9357 18.804 46.2364 18.9119 46.3992 19.0432L47.027 18.2648ZM45.4111 17.804H43.3951V18.804H45.4111V17.804ZM42.8951 18.304V21.188H43.8951V18.304H42.8951ZM53.6511 25.024H53.1511V25.524H53.6511V25.024ZM53.6091 15.798L53.1102 15.8313L53.1108 15.8404L53.1118 15.8494L53.6091 15.798ZM53.5391 14.972V14.472H52.9847L53.0418 15.0234L53.5391 14.972ZM54.6311 14.972L55.129 14.926L55.087 14.472H54.6311V14.972ZM54.7851 16.638V17.138H55.3334L55.283 16.592L54.7851 16.638ZM54.6171 16.638L54.1345 16.5071L53.9634 17.138H54.6171V16.638ZM55.5271 15.336L55.8122 15.7468L55.8177 15.7429L55.5271 15.336ZM58.8031 15.28L58.5358 15.7026L58.5396 15.705L58.8031 15.28ZM59.8951 16.526L60.3454 16.3086L60.3454 16.3086L59.8951 16.526ZM59.8951 20.432L59.4448 20.2146L59.4418 20.221L59.8951 20.432ZM58.8171 21.692L59.0806 22.117L59.0866 22.1131L58.8171 21.692ZM55.5411 21.65L55.8261 21.2392L55.8261 21.2392L55.5411 21.65ZM54.6311 20.348V19.848H53.9774L54.1485 20.4789L54.6311 20.348ZM54.7851 20.348H55.2851V19.848H54.7851V20.348ZM54.7851 25.024V25.524H55.2851V25.024H54.7851ZM58.5371 20.516L58.158 20.19L58.1575 20.1906L58.5371 20.516ZM58.5371 16.456L58.1542 16.7777L58.1613 16.7858L58.5371 16.456ZM55.3451 16.456L54.966 16.13L54.9655 16.1306L55.3451 16.456ZM55.3451 20.516L54.9622 20.8377L54.9693 20.8458L55.3451 20.516ZM54.1511 25.024V16.596H53.1511V25.024H54.1511ZM54.1511 16.596C54.1511 16.3168 54.1361 16.0336 54.1064 15.7466L53.1118 15.8494C53.1381 16.1037 53.1511 16.3525 53.1511 16.596H54.1511ZM54.108 15.7647C54.0889 15.4789 54.0651 15.1975 54.0364 14.9205L53.0418 15.0234C53.0691 15.2879 53.0919 15.5571 53.1102 15.8313L54.108 15.7647ZM53.5391 15.472H54.6311V14.472H53.5391V15.472ZM54.1332 15.018L54.2872 16.684L55.283 16.592L55.129 14.926L54.1332 15.018ZM54.7851 16.138H54.6171V17.138H54.7851V16.138ZM55.0997 16.7689C55.219 16.3288 55.4542 15.9952 55.8121 15.7468L55.2421 14.9252C54.6854 15.3115 54.3138 15.8459 54.1345 16.5071L55.0997 16.7689ZM55.8177 15.7429C56.1795 15.4844 56.6206 15.346 57.1651 15.346V14.346C56.4402 14.346 55.7894 14.5342 55.2365 14.9291L55.8177 15.7429ZM57.1651 15.346C57.7217 15.346 58.1714 15.472 58.5358 15.7025L59.0704 14.8575C58.5201 14.5093 57.8778 14.346 57.1651 14.346V15.346ZM58.5396 15.705C58.918 15.9395 59.2207 16.2792 59.4448 16.7434L60.3454 16.3086C60.0468 15.6902 59.6215 15.1991 59.0666 14.855L58.5396 15.705ZM59.4448 16.7434C59.6657 17.201 59.7871 17.776 59.7871 18.486H60.7871C60.7871 17.6653 60.6471 16.9337 60.3454 16.3086L59.4448 16.7434ZM59.7871 18.486C59.7871 19.1856 59.6661 19.7562 59.4448 20.2146L60.3454 20.6494C60.6468 20.0251 60.7871 19.2984 60.7871 18.486H59.7871ZM59.4418 20.221C59.2266 20.6832 58.928 21.0274 58.5476 21.2709L59.0866 22.1131C59.6395 21.7593 60.0596 21.2634 60.3484 20.643L59.4418 20.221ZM58.5536 21.267C58.1778 21.5001 57.7215 21.626 57.1651 21.626V22.626C57.8781 22.626 58.5231 22.4626 59.0806 22.117L58.5536 21.267ZM57.1651 21.626C56.6286 21.626 56.1896 21.4914 55.8261 21.2392L55.2561 22.0608C55.8072 22.4432 56.451 22.626 57.1651 22.626V21.626ZM55.8261 21.2392C55.4682 20.9908 55.233 20.6572 55.1137 20.2171L54.1485 20.4789C54.3278 21.1401 54.6994 21.6745 55.2561 22.0608L55.8261 21.2392ZM54.6311 20.848H54.7851V19.848H54.6311V20.848ZM54.2851 20.348V25.024H55.2851V20.348H54.2851ZM54.7851 24.524H53.6511V25.524H54.7851V24.524ZM56.9411 21.702C57.7401 21.702 58.4181 21.4232 58.9167 20.8414L58.1575 20.1906C57.8721 20.5235 57.4861 20.702 56.9411 20.702V21.702ZM58.9162 20.842C59.4237 20.2519 59.6391 19.4405 59.6391 18.486H58.6391C58.6391 19.3048 58.4532 19.8468 58.158 20.19L58.9162 20.842ZM59.6391 18.486C59.6391 17.5247 59.4248 16.7095 58.9129 16.1262L58.1613 16.7858C58.4521 17.1171 58.6391 17.6553 58.6391 18.486H59.6391ZM58.92 16.1344C58.4225 15.5421 57.7437 15.256 56.9411 15.256V16.256C57.4825 16.256 57.8677 16.4365 58.1542 16.7776L58.92 16.1344ZM56.9411 15.256C56.1454 15.256 55.4703 15.5436 54.966 16.13L55.7242 16.782C56.0226 16.435 56.4115 16.256 56.9411 16.256V15.256ZM54.9655 16.1306C54.4656 16.7138 54.2571 17.5271 54.2571 18.486H55.2571C55.2571 17.6529 55.4406 17.1129 55.7247 16.7814L54.9655 16.1306ZM54.2571 18.486C54.2571 19.4381 54.4667 20.2477 54.9622 20.8376L55.728 20.1944C55.4395 19.851 55.2571 19.3072 55.2571 18.486H54.2571ZM54.9693 20.8458C55.4747 21.4217 56.1489 21.702 56.9411 21.702V20.702C56.4079 20.702 56.0182 20.525 55.7209 20.1862L54.9693 20.8458ZM62.714 21.174L62.3579 21.525L62.3605 21.5276L62.714 21.174ZM62.182 16.582L62.6261 16.8117L62.6277 16.8086L62.182 16.582ZM63.358 15.308L63.6129 15.7382L63.6187 15.7346L63.358 15.308ZM66.718 15.252L66.4555 15.6775L66.4555 15.6775L66.718 15.252ZM67.726 16.414L67.2723 16.6241L67.2738 16.6273L67.726 16.414ZM68.076 18.598V19.098H68.576V18.598H68.076ZM62.63 18.598H62.13V19.098H62.63V18.598ZM62.63 17.884V17.384H62.13V17.884H62.63ZM67.334 17.884L67.6377 18.2812L68.811 17.384H67.334V17.884ZM67.096 18.066H66.596V19.0778L67.3997 18.4632L67.096 18.066ZM66.592 16.316L66.9825 16.0037L66.9825 16.0037L66.592 16.316ZM63.456 16.428L63.845 16.7422L63.8479 16.7385L63.456 16.428ZM63.512 20.53L63.1474 20.8723L63.1548 20.8798L63.512 20.53ZM66.522 21.02L66.6802 21.4944L66.6872 21.4919L66.522 21.02ZM67.586 20.39L68.0348 20.1695L67.7497 19.5892L67.2598 20.0111L67.586 20.39ZM67.978 21.188L68.3261 21.547L68.5871 21.2939L68.4268 20.9675L67.978 21.188ZM66.802 21.888L66.963 22.3614L66.9684 22.3595L66.802 21.888ZM65.318 21.626C64.3173 21.626 63.588 21.3409 63.0676 20.8204L62.3605 21.5276C63.1093 22.2764 64.1161 22.626 65.318 22.626V21.626ZM63.0701 20.823C62.5501 20.2953 62.262 19.5431 62.262 18.5H61.262C61.262 19.7342 61.6086 20.7647 62.3579 21.525L63.0701 20.823ZM62.262 18.5C62.262 17.826 62.3898 17.2686 62.6261 16.8117L61.7379 16.3523C61.4143 16.978 61.262 17.6993 61.262 18.5H62.262ZM62.6277 16.8086C62.8672 16.3377 63.1951 15.9858 63.6129 15.7381L63.1031 14.8779C62.513 15.2276 62.0569 15.725 61.7363 16.3554L62.6277 16.8086ZM63.6187 15.7346C64.0361 15.4796 64.5226 15.346 65.094 15.346V14.346C64.3587 14.346 63.688 14.5204 63.0973 14.8814L63.6187 15.7346ZM65.094 15.346C65.6683 15.346 66.1132 15.4664 66.4555 15.6775L66.9806 14.8265C66.4455 14.4963 65.8078 14.346 65.094 14.346V15.346ZM66.4555 15.6775C66.8041 15.8926 67.0768 16.2019 67.2723 16.6241L68.1798 16.2039C67.9086 15.6181 67.5092 15.1527 66.9806 14.8265L66.4555 15.6775ZM67.2738 16.6273C67.4689 17.041 67.576 17.5528 67.576 18.178H68.576C68.576 17.4406 68.4498 16.7764 68.1782 16.2007L67.2738 16.6273ZM67.576 18.178V18.598H68.576V18.178H67.576ZM68.076 18.098H62.63V19.098H68.076V18.098ZM63.13 18.598V17.884H62.13V18.598H63.13ZM62.63 18.384H67.334V17.384H62.63V18.384ZM67.0303 17.4868L66.7923 17.6688L67.3997 18.4632L67.6377 18.2812L67.0303 17.4868ZM67.596 18.066C67.596 17.2493 67.4125 16.5412 66.9825 16.0037L66.2016 16.6283C66.4436 16.9308 66.596 17.3894 66.596 18.066H67.596ZM66.9825 16.0037C66.5297 15.4377 65.8697 15.186 65.094 15.186V16.186C65.6436 16.186 65.9823 16.3543 66.2016 16.6283L66.9825 16.0037ZM65.094 15.186C64.2603 15.186 63.5622 15.489 63.0641 16.1175L63.8479 16.7385C64.1339 16.3777 64.5277 16.186 65.094 16.186V15.186ZM63.067 16.1138C62.5825 16.7138 62.368 17.495 62.368 18.402H63.368C63.368 17.6477 63.5455 17.1129 63.845 16.7422L63.067 16.1138ZM62.368 18.402V18.528H63.368V18.402H62.368ZM62.368 18.528C62.368 19.4815 62.6016 20.2907 63.1475 20.8722L63.8766 20.1878C63.5638 19.8546 63.368 19.3292 63.368 18.528H62.368ZM63.1548 20.8798C63.7098 21.4467 64.4633 21.702 65.346 21.702V20.702C64.6608 20.702 64.1916 20.5093 63.8693 20.1802L63.1548 20.8798ZM65.346 21.702C65.8147 21.702 66.2606 21.6342 66.6801 21.4943L66.3639 20.5457C66.0555 20.6485 65.7173 20.702 65.346 20.702V21.702ZM66.6872 21.4919C67.1263 21.3382 67.5346 21.0941 67.9123 20.7689L67.2598 20.0111C66.9654 20.2645 66.6644 20.4404 66.3568 20.5481L66.6872 21.4919ZM67.1372 20.6105L67.5292 21.4085L68.4268 20.9675L68.0348 20.1695L67.1372 20.6105ZM67.6299 20.829C67.382 21.0695 67.0555 21.2683 66.6356 21.4165L66.9684 22.3595C67.5005 22.1717 67.958 21.9039 68.3261 21.547L67.6299 20.829ZM66.6411 21.4146C66.2293 21.5546 65.7893 21.626 65.318 21.626V22.626C65.8921 22.626 66.4414 22.5387 66.963 22.3614L66.6411 21.4146ZM69.892 22H69.392V22.5H69.892V22ZM69.892 14.972V14.472H69.392V14.972H69.892ZM75.982 14.972H76.482V14.472H75.982V14.972ZM75.982 22V22.5H76.482V22H75.982ZM74.848 22H74.348V22.5H74.848V22ZM74.848 15.868H75.348V15.368H74.848V15.868ZM71.026 15.868V15.368H70.526V15.868H71.026ZM71.026 22V22.5H71.526V22H71.026ZM70.392 22V14.972H69.392V22H70.392ZM69.892 15.472H75.982V14.472H69.892V15.472ZM75.482 14.972V22H76.482V14.972H75.482ZM75.982 21.5H74.848V22.5H75.982V21.5ZM75.348 22V15.868H74.348V22H75.348ZM74.848 15.368H71.026V16.368H74.848V15.368ZM70.526 15.868V22H71.526V15.868H70.526ZM71.026 21.5H69.892V22.5H71.026V21.5ZM78.7921 21.174L78.436 21.525L78.4386 21.5276L78.7921 21.174ZM78.2601 16.582L78.7043 16.8117L78.7058 16.8086L78.2601 16.582ZM79.4361 15.308L79.6911 15.7382L79.6969 15.7346L79.4361 15.308ZM82.7961 15.252L82.5336 15.6775L82.5336 15.6775L82.7961 15.252ZM83.8041 16.414L83.3504 16.6241L83.3519 16.6273L83.8041 16.414ZM84.1541 18.598V19.098H84.6541V18.598H84.1541ZM78.7081 18.598H78.2081V19.098H78.7081V18.598ZM78.7081 17.884V17.384H78.2081V17.884H78.7081ZM83.4121 17.884L83.7159 18.2812L84.8891 17.384H83.4121V17.884ZM83.1741 18.066H82.6741V19.0778L83.4779 18.4632L83.1741 18.066ZM82.6701 16.316L83.0606 16.0037L83.0606 16.0037L82.6701 16.316ZM79.5341 16.428L79.9231 16.7422L79.926 16.7385L79.5341 16.428ZM79.5901 20.53L79.2255 20.8723L79.2329 20.8798L79.5901 20.53ZM82.6001 21.02L82.7583 21.4944L82.7653 21.4919L82.6001 21.02ZM83.6641 20.39L84.1129 20.1695L83.8278 19.5892L83.3379 20.0111L83.6641 20.39ZM84.0561 21.188L84.4042 21.547L84.6652 21.2939L84.5049 20.9675L84.0561 21.188ZM82.8801 21.888L83.0411 22.3614L83.0466 22.3595L82.8801 21.888ZM81.3961 21.626C80.3954 21.626 79.6662 21.3409 79.1457 20.8204L78.4386 21.5276C79.1875 22.2764 80.1942 22.626 81.3961 22.626V21.626ZM79.1483 20.823C78.6282 20.2953 78.3401 19.5431 78.3401 18.5H77.3401C77.3401 19.7342 77.6868 20.7647 78.436 21.525L79.1483 20.823ZM78.3401 18.5C78.3401 17.826 78.4679 17.2686 78.7043 16.8117L77.816 16.3523C77.4924 16.978 77.3401 17.6993 77.3401 18.5H78.3401ZM78.7058 16.8086C78.9453 16.3377 79.2732 15.9858 79.691 15.7381L79.1812 14.8779C78.5911 15.2276 78.135 15.725 77.8145 16.3554L78.7058 16.8086ZM79.6969 15.7346C80.1142 15.4796 80.6008 15.346 81.1721 15.346V14.346C80.4369 14.346 79.7661 14.5204 79.1754 14.8814L79.6969 15.7346ZM81.1721 15.346C81.7464 15.346 82.1914 15.4664 82.5336 15.6775L83.0587 14.8265C82.5236 14.4963 81.8859 14.346 81.1721 14.346V15.346ZM82.5336 15.6775C82.8823 15.8926 83.1549 16.2019 83.3504 16.6241L84.2579 16.2039C83.9867 15.6181 83.5874 15.1527 83.0587 14.8265L82.5336 15.6775ZM83.3519 16.6273C83.547 17.041 83.6541 17.5528 83.6541 18.178H84.6541C84.6541 17.4406 84.5279 16.7764 84.2564 16.2007L83.3519 16.6273ZM83.6541 18.178V18.598H84.6541V18.178H83.6541ZM84.1541 18.098H78.7081V19.098H84.1541V18.098ZM79.2081 18.598V17.884H78.2081V18.598H79.2081ZM78.7081 18.384H83.4121V17.384H78.7081V18.384ZM83.1084 17.4868L82.8704 17.6688L83.4779 18.4632L83.7159 18.2812L83.1084 17.4868ZM83.6741 18.066C83.6741 17.2493 83.4906 16.5412 83.0606 16.0037L82.2797 16.6283C82.5217 16.9308 82.6741 17.3894 82.6741 18.066H83.6741ZM83.0606 16.0037C82.6078 15.4377 81.9479 15.186 81.1721 15.186V16.186C81.7217 16.186 82.0605 16.3543 82.2797 16.6283L83.0606 16.0037ZM81.1721 15.186C80.3384 15.186 79.6403 15.489 79.1423 16.1175L79.926 16.7385C80.212 16.3777 80.6059 16.186 81.1721 16.186V15.186ZM79.1452 16.1138C78.6606 16.7138 78.4461 17.495 78.4461 18.402H79.4461C79.4461 17.6477 79.6237 17.1129 79.9231 16.7422L79.1452 16.1138ZM78.4461 18.402V18.528H79.4461V18.402H78.4461ZM78.4461 18.528C78.4461 19.4815 78.6797 20.2907 79.2256 20.8722L79.9547 20.1878C79.6419 19.8546 79.4461 19.3292 79.4461 18.528H78.4461ZM79.2329 20.8798C79.7879 21.4467 80.5414 21.702 81.4241 21.702V20.702C80.7389 20.702 80.2697 20.5093 79.9474 20.1802L79.2329 20.8798ZM81.4241 21.702C81.8928 21.702 82.3387 21.6342 82.7583 21.4943L82.442 20.5457C82.1336 20.6485 81.7955 20.702 81.4241 20.702V21.702ZM82.7653 21.4919C83.2044 21.3382 83.6127 21.0941 83.9904 20.7689L83.3379 20.0111C83.0436 20.2645 82.7425 20.4404 82.435 20.5481L82.7653 21.4919ZM83.2154 20.6105L83.6074 21.4085L84.5049 20.9675L84.1129 20.1695L83.2154 20.6105ZM83.7081 20.829C83.4601 21.0695 83.1337 21.2683 82.7137 21.4165L83.0466 22.3595C83.5786 22.1717 84.0361 21.9039 84.4042 21.547L83.7081 20.829ZM82.7192 21.4146C82.3074 21.5546 81.8674 21.626 81.3961 21.626V22.626C81.9702 22.626 82.5195 22.5387 83.0411 22.3614L82.7192 21.4146ZM87.4681 22H86.9681V22.5H87.4681V22ZM87.4681 15.882H87.9681V15.382H87.4681V15.882ZM84.9201 15.882H84.4201V16.382H84.9201V15.882ZM84.9201 14.972V14.472H84.4201V14.972H84.9201ZM91.1641 14.972H91.6641V14.472H91.1641V14.972ZM91.1641 15.882V16.382H91.6641V15.882H91.1641ZM88.6021 15.882V15.382H88.1021V15.882H88.6021ZM88.6021 22V22.5H89.1021V22H88.6021ZM87.9681 22V15.882H86.9681V22H87.9681ZM87.4681 15.382H84.9201V16.382H87.4681V15.382ZM85.4201 15.882V14.972H84.4201V15.882H85.4201ZM84.9201 15.472H91.1641V14.472H84.9201V15.472ZM90.6641 14.972V15.882H91.6641V14.972H90.6641ZM91.1641 15.382H88.6021V16.382H91.1641V15.382ZM88.1021 15.882V22H89.1021V15.882H88.1021ZM88.6021 21.5H87.4681V22.5H88.6021V21.5ZM92.3412 22H91.8412V22.5H92.3412V22ZM92.3412 14.972V14.472H91.8412V14.972H92.3412ZM93.3772 14.972H93.8772V14.472H93.3772V14.972ZM93.3772 20.95V21.45H93.8772V20.95H93.3772ZM92.9992 20.95L92.5991 20.6501L91.9997 21.45H92.9992V20.95ZM97.4792 14.972V14.472H97.2291L97.0791 14.6721L97.4792 14.972ZM98.4312 14.972H98.9312V14.472H98.4312V14.972ZM98.4312 22V22.5H98.9312V22H98.4312ZM97.4092 22H96.9092V22.5H97.4092V22ZM97.4092 16.008V15.508H96.9092V16.008H97.4092ZM97.7872 16.008L98.1876 16.3074L98.7853 15.508H97.7872V16.008ZM93.3072 22V22.5H93.5577L93.7076 22.2994L93.3072 22ZM92.8412 22V14.972H91.8412V22H92.8412ZM92.3412 15.472H93.3772V14.472H92.3412V15.472ZM92.8772 14.972V20.95H93.8772V14.972H92.8772ZM93.3772 20.45H92.9992V21.45H93.3772V20.45ZM93.3993 21.2499L97.8793 15.2718L97.0791 14.6721L92.5991 20.6501L93.3993 21.2499ZM97.4792 15.472H98.4312V14.472H97.4792V15.472ZM97.9312 14.972V22H98.9312V14.972H97.9312ZM98.4312 21.5H97.4092V22.5H98.4312V21.5ZM97.9092 22V16.008H96.9092V22H97.9092ZM97.4092 16.508H97.7872V15.508H97.4092V16.508ZM97.3867 15.7086L92.9067 21.7006L93.7076 22.2994L98.1876 16.3074L97.3867 15.7086ZM93.3072 21.5H92.3412V22.5H93.3072V21.5ZM102.165 22H101.665V22.5H102.165V22ZM102.165 15.882H102.665V15.382H102.165V15.882ZM99.6174 15.882H99.1174V16.382H99.6174V15.882ZM99.6174 14.972V14.472H99.1174V14.972H99.6174ZM105.861 14.972H106.361V14.472H105.861V14.972ZM105.861 15.882V16.382H106.361V15.882H105.861ZM103.299 15.882V15.382H102.799V15.882H103.299ZM103.299 22V22.5H103.799V22H103.299ZM102.665 22V15.882H101.665V22H102.665ZM102.165 15.382H99.6174V16.382H102.165V15.382ZM100.117 15.882V14.972H99.1174V15.882H100.117ZM99.6174 15.472H105.861V14.472H99.6174V15.472ZM105.361 14.972V15.882H106.361V14.972H105.361ZM105.861 15.382H103.299V16.382H105.861V15.382ZM102.799 15.882V22H103.799V15.882H102.799ZM103.299 21.5H102.165V22.5H103.299V21.5ZM108.187 21.692L107.929 22.1201L107.938 22.1256L108.187 21.692ZM107.039 20.432L106.59 20.6526L106.592 20.6556L107.039 20.432ZM107.039 16.54L106.592 16.3164L106.592 16.3164L107.039 16.54ZM108.187 15.294L108.44 15.7256L108.442 15.7241L108.187 15.294ZM111.715 15.294L111.457 15.7221L111.466 15.7276L111.715 15.294ZM112.877 16.54L112.43 16.7636L112.433 16.7697L112.877 16.54ZM112.877 20.432L112.431 20.2054L112.43 20.2084L112.877 20.432ZM111.715 21.692L111.968 22.1236L111.97 22.1221L111.715 21.692ZM111.547 20.516L111.927 20.8414L111.93 20.8376L111.547 20.516ZM111.533 16.456L111.15 16.7777L111.157 16.7858L111.533 16.456ZM108.369 16.456L108.749 16.7814L108.752 16.7776L108.369 16.456ZM108.369 20.516L107.986 20.8376L107.989 20.8414L108.369 20.516ZM109.951 21.626C109.353 21.626 108.853 21.4978 108.436 21.2584L107.938 22.1256C108.529 22.4648 109.206 22.626 109.951 22.626V21.626ZM108.446 21.264C108.036 21.0166 107.717 20.6693 107.486 20.2084L106.592 20.6556C106.903 21.2774 107.349 21.7701 107.929 22.12L108.446 21.264ZM107.488 20.2114C107.257 19.7427 107.133 19.1725 107.133 18.486H106.133C106.133 19.2928 106.279 20.02 106.59 20.6526L107.488 20.2114ZM107.133 18.486C107.133 17.7887 107.258 17.2204 107.486 16.7636L106.592 16.3164C106.279 16.9423 106.133 17.6713 106.133 18.486H107.133ZM107.486 16.7636C107.716 16.3039 108.033 15.9631 108.44 15.7256L107.935 14.8624C107.351 15.2035 106.903 15.6934 106.592 16.3164L107.486 16.7636ZM108.442 15.7241C108.858 15.4776 109.355 15.346 109.951 15.346V14.346C109.203 14.346 108.524 14.5131 107.932 14.8639L108.442 15.7241ZM109.951 15.346C110.558 15.346 111.053 15.4783 111.457 15.722L111.974 14.866C111.388 14.5124 110.707 14.346 109.951 14.346V15.346ZM111.466 15.7276C111.881 15.9659 112.201 16.3064 112.43 16.7636L113.324 16.3164C113.012 15.6909 112.557 15.2008 111.964 14.8604L111.466 15.7276ZM112.433 16.7697C112.668 17.225 112.797 17.7911 112.797 18.486H113.797C113.797 17.6689 113.646 16.9377 113.321 16.3103L112.433 16.7697ZM112.797 18.486C112.797 19.1702 112.669 19.7381 112.431 20.2054L113.323 20.6586C113.645 20.0246 113.797 19.2952 113.797 18.486H112.797ZM112.43 20.2084C112.201 20.6668 111.879 21.0138 111.46 21.2619L111.97 22.1221C112.559 21.7728 113.012 21.2798 113.324 20.6556L112.43 20.2084ZM111.463 21.2604C111.058 21.4971 110.561 21.626 109.951 21.626V22.626C110.704 22.626 111.383 22.4655 111.968 22.1236L111.463 21.2604ZM109.951 21.702C110.75 21.702 111.428 21.4232 111.927 20.8414L111.167 20.1906C110.882 20.5235 110.496 20.702 109.951 20.702V21.702ZM111.93 20.8376C112.426 20.2477 112.635 19.4381 112.635 18.486H111.635C111.635 19.3072 111.453 19.851 111.164 20.1944L111.93 20.8376ZM112.635 18.486C112.635 17.5247 112.421 16.7095 111.909 16.1262L111.157 16.7858C111.448 17.1171 111.635 17.6553 111.635 18.486H112.635ZM111.916 16.1344C111.42 15.5439 110.747 15.256 109.951 15.256V16.256C110.481 16.256 110.862 16.4348 111.15 16.7776L111.916 16.1344ZM109.951 15.256C109.155 15.256 108.482 15.5439 107.986 16.1344L108.752 16.7776C109.04 16.4348 109.422 16.256 109.951 16.256V15.256ZM107.989 16.1306C107.49 16.7138 107.281 17.5271 107.281 18.486H108.281C108.281 17.6529 108.465 17.1129 108.749 16.7814L107.989 16.1306ZM107.281 18.486C107.281 19.4381 107.491 20.2477 107.986 20.8376L108.752 20.1944C108.464 19.851 108.281 19.3072 108.281 18.486H107.281ZM107.989 20.8414C108.487 21.4215 109.159 21.702 109.951 21.702V20.702C109.418 20.702 109.036 20.5252 108.749 20.1906L107.989 20.8414ZM115.202 25.024H114.702V25.524H115.202V25.024ZM115.16 15.798L114.661 15.8313L114.662 15.8404L114.663 15.8494L115.16 15.798ZM115.09 14.972V14.472H114.535L114.593 15.0234L115.09 14.972ZM116.182 14.972L116.68 14.926L116.638 14.472H116.182V14.972ZM116.336 16.638V17.138H116.884L116.834 16.592L116.336 16.638ZM116.168 16.638L115.685 16.5071L115.514 17.138H116.168V16.638ZM117.078 15.336L117.363 15.7468L117.368 15.7429L117.078 15.336ZM120.354 15.28L120.087 15.7026L120.09 15.705L120.354 15.28ZM121.446 16.526L121.896 16.3086L121.896 16.3086L121.446 16.526ZM121.446 20.432L120.996 20.2146L120.993 20.221L121.446 20.432ZM120.368 21.692L120.631 22.117L120.637 22.1131L120.368 21.692ZM117.092 21.65L117.377 21.2392L117.377 21.2392L117.092 21.65ZM116.182 20.348V19.848H115.528L115.699 20.4789L116.182 20.348ZM116.336 20.348H116.836V19.848H116.336V20.348ZM116.336 25.024V25.524H116.836V25.024H116.336ZM120.088 20.516L119.709 20.19L119.708 20.1906L120.088 20.516ZM120.088 16.456L119.705 16.7777L119.712 16.7858L120.088 16.456ZM116.896 16.456L116.517 16.13L116.516 16.1306L116.896 16.456ZM116.896 20.516L116.513 20.8377L116.52 20.8458L116.896 20.516ZM115.702 25.024V16.596H114.702V25.024H115.702ZM115.702 16.596C115.702 16.3168 115.687 16.0336 115.657 15.7466L114.663 15.8494C114.689 16.1037 114.702 16.3525 114.702 16.596H115.702ZM115.659 15.7647C115.64 15.4789 115.616 15.1975 115.587 14.9205L114.593 15.0234C114.62 15.2879 114.643 15.5571 114.661 15.8313L115.659 15.7647ZM115.09 15.472H116.182V14.472H115.09V15.472ZM115.684 15.018L115.838 16.684L116.834 16.592L116.68 14.926L115.684 15.018ZM116.336 16.138H116.168V17.138H116.336V16.138ZM116.65 16.7689C116.77 16.3288 117.005 15.9952 117.363 15.7468L116.793 14.9252C116.236 15.3115 115.865 15.8459 115.685 16.5071L116.65 16.7689ZM117.368 15.7429C117.73 15.4844 118.171 15.346 118.716 15.346V14.346C117.991 14.346 117.34 14.5342 116.787 14.9291L117.368 15.7429ZM118.716 15.346C119.273 15.346 119.722 15.472 120.087 15.7025L120.621 14.8575C120.071 14.5093 119.429 14.346 118.716 14.346V15.346ZM120.09 15.705C120.469 15.9395 120.772 16.2792 120.996 16.7434L121.896 16.3086C121.598 15.6902 121.172 15.1991 120.617 14.855L120.09 15.705ZM120.996 16.7434C121.217 17.201 121.338 17.776 121.338 18.486H122.338C122.338 17.6653 122.198 16.9337 121.896 16.3086L120.996 16.7434ZM121.338 18.486C121.338 19.1856 121.217 19.7562 120.996 20.2146L121.896 20.6494C122.198 20.0251 122.338 19.2984 122.338 18.486H121.338ZM120.993 20.221C120.777 20.6832 120.479 21.0274 120.098 21.2709L120.637 22.1131C121.19 21.7593 121.61 21.2634 121.899 20.643L120.993 20.221ZM120.104 21.267C119.729 21.5001 119.272 21.626 118.716 21.626V22.626C119.429 22.626 120.074 22.4626 120.631 22.117L120.104 21.267ZM118.716 21.626C118.179 21.626 117.74 21.4914 117.377 21.2392L116.807 22.0608C117.358 22.4432 118.002 22.626 118.716 22.626V21.626ZM117.377 21.2392C117.019 20.9908 116.784 20.6572 116.664 20.2171L115.699 20.4789C115.879 21.1401 116.25 21.6745 116.807 22.0608L117.377 21.2392ZM116.182 20.848H116.336V19.848H116.182V20.848ZM115.836 20.348V25.024H116.836V20.348H115.836ZM116.336 24.524H115.202V25.524H116.336V24.524ZM118.492 21.702C119.291 21.702 119.969 21.4232 120.468 20.8414L119.708 20.1906C119.423 20.5235 119.037 20.702 118.492 20.702V21.702ZM120.467 20.842C120.974 20.2519 121.19 19.4405 121.19 18.486H120.19C120.19 19.3048 120.004 19.8468 119.709 20.19L120.467 20.842ZM121.19 18.486C121.19 17.5247 120.976 16.7095 120.464 16.1262L119.712 16.7858C120.003 17.1171 120.19 17.6553 120.19 18.486H121.19ZM120.471 16.1344C119.973 15.5421 119.294 15.256 118.492 15.256V16.256C119.033 16.256 119.419 16.4365 119.705 16.7776L120.471 16.1344ZM118.492 15.256C117.696 15.256 117.021 15.5436 116.517 16.13L117.275 16.782C117.573 16.435 117.962 16.256 118.492 16.256V15.256ZM116.516 16.1306C116.016 16.7138 115.808 17.5271 115.808 18.486H116.808C116.808 17.6529 116.991 17.1129 117.276 16.7814L116.516 16.1306ZM115.808 18.486C115.808 19.4381 116.017 20.2477 116.513 20.8376L117.279 20.1944C116.99 19.851 116.808 19.3072 116.808 18.486H115.808ZM116.52 20.8458C117.025 21.4217 117.7 21.702 118.492 21.702V20.702C117.959 20.702 117.569 20.525 117.272 20.1862L116.52 20.8458ZM124.783 21.692L124.513 22.1132L124.519 22.117L124.783 21.692ZM123.691 20.432L123.237 20.643L123.241 20.6494L123.691 20.432ZM123.691 16.526L123.24 16.3086L123.238 16.315L123.691 16.526ZM124.783 15.28L125.046 15.705L125.046 15.705L124.783 15.28ZM128.059 15.336L127.768 15.743L127.778 15.7495L128.059 15.336ZM128.983 16.638V17.138H129.636L129.465 16.5071L128.983 16.638ZM128.815 16.638L128.317 16.592L128.266 17.138H128.815V16.638ZM128.969 14.972V14.472H128.513L128.471 14.926L128.969 14.972ZM130.061 14.972L130.558 15.0234L130.615 14.472H130.061V14.972ZM129.977 15.798L129.479 15.7482L129.479 15.7559L129.478 15.7636L129.977 15.798ZM129.949 22V22.5H130.449V22H129.949ZM128.815 22H128.315V22.5H128.815V22ZM128.815 20.348V19.848H128.315V20.348H128.815ZM128.969 20.348L129.451 20.4789L129.622 19.848H128.969V20.348ZM128.045 21.65L128.326 22.0635L128.326 22.0635L128.045 21.65ZM128.241 20.516L128.62 20.8414L128.624 20.8376L128.241 20.516ZM128.241 16.456L127.858 16.7776L127.861 16.7814L128.241 16.456ZM125.049 16.456L124.67 16.13L124.669 16.1306L125.049 16.456ZM125.049 20.516L124.666 20.8377L124.673 20.8458L125.049 20.516ZM126.421 21.626C125.875 21.626 125.423 21.5008 125.046 21.267L124.519 22.117C125.076 22.4619 125.716 22.626 126.421 22.626V21.626ZM125.052 21.2709C124.67 21.0263 124.366 20.68 124.141 20.2146L123.241 20.6494C123.539 21.2667 123.962 21.7604 124.513 22.1131L125.052 21.2709ZM124.144 20.221C123.93 19.7609 123.813 19.1879 123.813 18.486H122.813C122.813 19.2961 122.948 20.0204 123.238 20.643L124.144 20.221ZM123.813 18.486C123.813 17.7738 123.93 17.1964 124.144 16.737L123.238 16.315C122.947 16.9383 122.813 17.6676 122.813 18.486H123.813ZM124.141 16.7434C124.365 16.2792 124.668 15.9395 125.046 15.705L124.519 14.855C123.964 15.1991 123.539 15.6902 123.241 16.3086L124.141 16.7434ZM125.046 15.705C125.423 15.4712 125.875 15.346 126.421 15.346V14.346C125.716 14.346 125.076 14.5101 124.519 14.855L125.046 15.705ZM126.421 15.346C126.965 15.346 127.406 15.4844 127.768 15.7429L128.349 14.9291C127.797 14.5342 127.146 14.346 126.421 14.346V15.346ZM127.778 15.7495C128.144 15.9989 128.382 16.332 128.5 16.7689L129.465 16.5071C129.285 15.8426 128.907 15.3078 128.34 14.9225L127.778 15.7495ZM128.983 16.138H128.815V17.138H128.983V16.138ZM129.313 16.684L129.467 15.018L128.471 14.926L128.317 16.592L129.313 16.684ZM128.969 15.472H130.061V14.472H128.969V15.472ZM129.563 14.9205C129.535 15.1918 129.507 15.4677 129.479 15.7482L130.474 15.8478C130.502 15.5683 130.53 15.2935 130.558 15.0234L129.563 14.9205ZM129.478 15.7636C129.459 16.0453 129.449 16.3228 129.449 16.596H130.449C130.449 16.3466 130.458 16.0921 130.476 15.8324L129.478 15.7636ZM129.449 16.596V22H130.449V16.596H129.449ZM129.949 21.5H128.815V22.5H129.949V21.5ZM129.315 22V20.348H128.315V22H129.315ZM128.815 20.848H128.969V19.848H128.815V20.848ZM128.486 20.2171C128.368 20.654 128.13 20.9871 127.764 21.2365L128.326 22.0635C128.893 21.6782 129.271 21.1434 129.451 20.4789L128.486 20.2171ZM127.764 21.2365C127.387 21.4923 126.946 21.626 126.421 21.626V22.626C127.127 22.626 127.769 22.4424 128.326 22.0635L127.764 21.2365ZM126.645 21.702C127.444 21.702 128.122 21.4232 128.62 20.8414L127.861 20.1906C127.576 20.5235 127.19 20.702 126.645 20.702V21.702ZM128.624 20.8376C129.119 20.2477 129.329 19.4381 129.329 18.486H128.329C128.329 19.3072 128.146 19.851 127.858 20.1944L128.624 20.8376ZM129.329 18.486C129.329 17.5271 129.12 16.7138 128.62 16.1306L127.861 16.7814C128.145 17.1129 128.329 17.6529 128.329 18.486H129.329ZM128.624 16.1344C128.126 15.5421 127.447 15.256 126.645 15.256V16.256C127.186 16.256 127.571 16.4365 127.858 16.7776L128.624 16.1344ZM126.645 15.256C125.849 15.256 125.174 15.5436 124.67 16.13L125.428 16.782C125.726 16.435 126.115 16.256 126.645 16.256V15.256ZM124.669 16.1306C124.169 16.7138 123.961 17.5271 123.961 18.486H124.961C124.961 17.6529 125.144 17.1129 125.428 16.7814L124.669 16.1306ZM123.961 18.486C123.961 19.4381 124.17 20.2477 124.666 20.8376L125.432 20.1944C125.143 19.851 124.961 19.3072 124.961 18.486H123.961ZM124.673 20.8458C125.178 21.4217 125.853 21.702 126.645 21.702V20.702C126.112 20.702 125.722 20.525 125.425 20.1862L124.673 20.8458Z" fill="white" mask="url(#path-3-outside-1_200_906)"/>
</svg>
